<svg width="57" height="57" viewBox="0 0 57 57" fill="none" xmlns="http://www.w3.org/2000/svg">
<path fill-rule="evenodd" clip-rule="evenodd" d="M28.1929 42.6071C23.1035 42.6071 17.9329 39.5859 14.9153 35.5871C0.437646 35.5871 0 56.2694 0 56.2694H56.3824C56.3824 56.2694 57.5188 35.4953 41.2376 35.4953C38.2235 39.5435 33.2824 42.6071 28.1929 42.6071Z" fill="white"/>
<path fill-rule="evenodd" clip-rule="evenodd" d="M40.32 17.8129C40.32 23.7635 34.8882 35.1424 28.1823 35.1424C21.4871 35.1424 16.0518 23.76 16.0518 17.8129C16.0518 11.8659 21.4835 7.03765 28.1823 7.03765C34.8882 7.04118 40.32 11.8694 40.32 17.8129Z" fill="white"/>
<path fill-rule="evenodd" clip-rule="evenodd" d="M45.7341 12.6776C45.7341 11.5624 44.1811 10.6624 42.2541 10.6553V8.35765C42.2541 8.01529 42.3847 0 28.2247 0C14.0717 0 14.2023 8.01529 14.2023 8.35765V10.7365C14.167 10.7365 14.1388 10.7259 14.107 10.7259C12.1905 10.7259 10.6482 11.6118 10.6482 12.7094V22.4294C10.6482 23.52 12.1941 24.4094 14.107 24.4094C16.02 24.4094 17.5729 23.52 17.5729 22.4294V12.7094C17.5729 12.5576 17.4776 12.42 17.4211 12.2788V9.62824C17.4211 9.38471 16.4047 3.33529 28.2247 3.33529C40.0482 3.33529 38.82 9.38471 38.82 9.62824V12.42C38.7988 12.5082 38.7317 12.5859 38.7317 12.6776V22.62C38.7317 23.7388 40.2953 24.6459 42.2329 24.6459C42.2753 24.6459 42.307 24.6318 42.3494 24.6318V28.2635H38.8764V31.6871H45.7694L45.7341 12.6776Z" fill="white"/>
</svg>
