<svg width="57" height="57" viewBox="0 0 57 57" fill="none" xmlns="http://www.w3.org/2000/svg">
<path d="M52.0744 0H4.14937C4.13437 0 4.1175 0 4.09875 0C1.85062 0 0.02625 1.8075 0 4.04813V52.1831C0.02625 54.4256 1.85062 56.235 4.09875 56.235C4.1175 56.235 4.13438 56.235 4.15313 56.235H52.0688C52.0838 56.235 52.1025 56.235 52.1213 56.235C54.3713 56.235 56.1994 54.4294 56.235 52.1869V52.1831V4.05188C56.1994 1.8075 54.3713 0 52.1194 0C52.1006 0 52.0838 0 52.065 0H52.0744ZM16.6781 47.9213H8.32687V21.0881H16.6781V47.9213ZM12.5044 17.4169C9.8325 17.4169 7.66875 15.2513 7.66875 12.5813C7.66875 9.91125 9.83437 7.74563 12.5044 7.74563C15.1744 7.74563 17.34 9.90937 17.34 12.5794C17.34 12.5812 17.34 12.5831 17.34 12.5869C17.34 15.255 15.1762 17.4187 12.5081 17.4187C12.5063 17.4187 12.5044 17.4187 12.5025 17.4187L12.5044 17.4169ZM47.9081 47.9213H39.5813V34.8731C39.5813 31.7606 39.5175 27.7575 35.2425 27.7575C30.9 27.7575 30.2381 31.1438 30.2381 34.6444V47.9231H21.9112V21.09H29.91V24.7481H30.0188C31.5713 22.1325 34.38 20.4075 37.5919 20.4075C37.7063 20.4075 37.8188 20.4094 37.9313 20.4131H37.9144C46.3519 20.4131 47.9119 25.9669 47.9119 33.195V47.9231L47.9081 47.9213Z" fill="white"/>
</svg>
