<svg width="60" height="60" viewBox="0 0 60 60" fill="none" xmlns="http://www.w3.org/2000/svg">
<g clip-path="url(#clip0_41_9)">
<path fill-rule="evenodd" clip-rule="evenodd" d="M49.4432 11.0746C52.163 9.92943 55.0787 12.2293 54.5985 15.141L48.9262 49.5328C48.3792 52.8488 44.7372 54.7515 41.695 53.099C39.1492 51.7162 35.3722 49.588 31.9682 47.3638C30.2685 46.253 25.0637 42.6915 25.7035 40.1563C26.2505 37.9885 35.0002 29.8438 40.0002 25C41.9642 23.0973 41.0697 21.9982 38.7502 23.75C32.9962 28.0958 23.7583 34.703 20.7034 36.5625C18.0081 38.203 16.6008 38.483 14.9221 38.203C11.8568 37.6923 9.01489 36.9013 6.69469 35.9395C3.55876 34.6395 3.71151 30.33 6.69256 29.075L49.4432 11.0746Z" fill="white"/>
</g>
<defs>
<clipPath id="clip0_41_9">
<rect width="60" height="60" fill="white"/>
</clipPath>
</defs>
</svg>
