<svg width="55" height="80" viewBox="0 0 55 80" fill="none" xmlns="http://www.w3.org/2000/svg">
<path d="M26.8159 80.0001C26.4896 79.9697 26.1652 79.9278 25.839 79.9126C20.7554 79.6862 16.092 78.1337 11.9085 75.2153C5.77307 70.9366 1.8559 65.0789 0.513304 57.6516C-1.11057 48.6718 1.12085 40.6699 7.1738 33.8743C11.3179 29.2227 16.512 26.3309 22.6193 25.3758C31.9575 23.9166 40.045 26.622 46.6811 33.4576C50.6039 37.4985 53.0172 42.3955 53.8554 48.0116C55.1793 56.8791 52.871 64.6946 46.8593 71.2848C42.6121 75.9421 37.3129 78.7121 31.11 79.6405C29.9849 79.8079 28.8411 79.8403 27.7066 79.9373C27.611 79.9449 27.5172 79.9792 27.4216 80.0001H26.814H26.8159ZM27.1534 36.0279C18.4884 35.9194 10.8922 43.1375 10.8866 52.4578C10.881 61.5478 18.1865 68.9542 27.129 68.9295C36.1166 68.9067 43.2178 61.565 43.3509 52.745C43.4953 43.2725 35.8316 35.9461 27.1534 36.026V36.0279Z" fill="#EB3230"/>
<path d="M2.57034 9.79228C5.6887 7.91832 8.78643 6.05959 11.8148 4.24081C12.593 5.04366 13.2924 5.86173 14.0912 6.56566C15.2294 7.56827 16.5439 8.21131 18.1134 8.10857C19.216 8.03628 20.2492 7.68622 21.1624 7.08694C22.2724 6.35638 23.3319 5.54212 24.382 4.72214C27.0072 2.67316 29.8405 1.06556 33.1145 0.369249C37.4705 -0.557263 41.5095 0.276027 45.241 2.68648C47.7369 4.29789 49.7639 6.40204 51.4046 8.8924C51.4909 9.02367 51.5678 9.16255 51.6821 9.3528C48.5638 11.2268 45.4679 13.0855 42.4152 14.9214C41.7289 14.187 41.0989 13.4241 40.3788 12.764C39.2406 11.7195 37.9336 10.9966 36.336 11.0327C35.2147 11.0574 34.1515 11.3828 33.227 11.9916C31.995 12.8001 30.8231 13.7057 29.6511 14.6037C27.1628 16.51 24.4776 18.0205 21.4136 18.7245C16.7464 19.7975 12.458 18.8424 8.52766 16.1352C6.23062 14.5523 4.34423 12.5509 2.81786 10.1994C2.73911 10.0796 2.66973 9.95399 2.57409 9.79418L2.57034 9.79228Z" fill="#EB3230"/>
<path d="M21.5261 58.1455V46.8086H32.7038V58.1455H21.5261Z" fill="#EB3230"/>
</svg>
